<svg id="visual" viewBox="0 0 960 540" width="960" height="540" xmlns="http://www.w3.org/2000/svg" xmlns:xlink="http://www.w3.org/1999/xlink" version="1.1"><rect x="0" y="0" width="960" height="540" fill="#FFD23F"></rect><defs><linearGradient id="grad1_0" x1="43.8%" y1="0%" x2="100%" y2="100%"><stop offset="14.444444444444446%" stop-color="#0f483a" stop-opacity="1"></stop><stop offset="85.55555555555554%" stop-color="#0f483a" stop-opacity="1"></stop></linearGradient></defs><defs><linearGradient id="grad1_1" x1="43.8%" y1="0%" x2="100%" y2="100%"><stop offset="14.444444444444446%" stop-color="#0f483a" stop-opacity="1"></stop><stop offset="85.55555555555554%" stop-color="#3e7b46" stop-opacity="1"></stop></linearGradient></defs><defs><linearGradient id="grad1_2" x1="43.8%" y1="0%" x2="100%" y2="100%"><stop offset="14.444444444444446%" stop-color="#91ab40" stop-opacity="1"></stop><stop offset="85.55555555555554%" stop-color="#3e7b46" stop-opacity="1"></stop></linearGradient></defs><defs><linearGradient id="grad1_3" x1="43.8%" y1="0%" x2="100%" y2="100%"><stop offset="14.444444444444446%" stop-color="#91ab40" stop-opacity="1"></stop><stop offset="85.55555555555554%" stop-color="#ffd23f" stop-opacity="1"></stop></linearGradient></defs><defs><linearGradient id="grad2_0" x1="0%" y1="0%" x2="56.3%" y2="100%"><stop offset="14.444444444444446%" stop-color="#0f483a" stop-opacity="1"></stop><stop offset="85.55555555555554%" stop-color="#0f483a" stop-opacity="1"></stop></linearGradient></defs><defs><linearGradient id="grad2_1" x1="0%" y1="0%" x2="56.3%" y2="100%"><stop offset="14.444444444444446%" stop-color="#3e7b46" stop-opacity="1"></stop><stop offset="85.55555555555554%" stop-color="#0f483a" stop-opacity="1"></stop></linearGradient></defs><defs><linearGradient id="grad2_2" x1="0%" y1="0%" x2="56.3%" y2="100%"><stop offset="14.444444444444446%" stop-color="#3e7b46" stop-opacity="1"></stop><stop offset="85.55555555555554%" stop-color="#91ab40" stop-opacity="1"></stop></linearGradient></defs><defs><linearGradient id="grad2_3" x1="0%" y1="0%" x2="56.3%" y2="100%"><stop offset="14.444444444444446%" stop-color="#ffd23f" stop-opacity="1"></stop><stop offset="85.55555555555554%" stop-color="#91ab40" stop-opacity="1"></stop></linearGradient></defs><g transform="translate(960, 0)"><path d="M0 486C-59.9 467.9 -119.7 449.9 -176.8 426.8C-233.8 403.8 -288.1 375.8 -335.9 335.9C-383.7 295.9 -425.1 244 -449 186C-473 128 -479.5 64 -486 0L0 0Z" fill="#c4c03c"></path><path d="M0 364.5C-44.9 350.9 -89.8 337.4 -132.6 320.1C-175.4 302.9 -216.1 281.9 -251.9 251.9C-287.8 221.9 -318.8 183 -336.8 139.5C-354.7 96 -359.6 48 -364.5 0L0 0Z" fill="#649444"></path><path d="M0 243C-29.9 234 -59.9 224.9 -88.4 213.4C-116.9 201.9 -144 187.9 -167.9 167.9C-191.8 148 -212.5 122 -224.5 93C-236.5 64 -239.7 32 -243 0L0 0Z" fill="#216243"></path><path d="M0 121.5C-15 117 -29.9 112.5 -44.2 106.7C-58.5 101 -72 94 -84 84C-95.9 74 -106.3 61 -112.3 46.5C-118.2 32 -119.9 16 -121.5 0L0 0Z" fill="#0f483a"></path></g><g transform="translate(0, 540)"><path d="M0 -486C60 -471.4 120 -456.9 180.6 -436.1C241.2 -415.3 302.4 -388.2 343.7 -343.7C385 -299.1 406.4 -237 426.8 -176.8C447.2 -116.6 466.6 -58.3 486 0L0 0Z" fill="#c4c03c"></path><path d="M0 -364.5C45 -353.6 90 -342.7 135.5 -327.1C180.9 -311.5 226.8 -291.2 257.7 -257.7C288.7 -224.3 304.8 -177.7 320.1 -132.6C335.4 -87.5 350 -43.7 364.5 0L0 0Z" fill="#649444"></path><path d="M0 -243C30 -235.7 60 -228.4 90.3 -218C120.6 -207.6 151.2 -194.1 171.8 -171.8C192.5 -149.5 203.2 -118.5 213.4 -88.4C223.6 -58.3 233.3 -29.2 243 0L0 0Z" fill="#216243"></path><path d="M0 -121.5C15 -117.9 30 -114.2 45.2 -109C60.3 -103.8 75.6 -97.1 85.9 -85.9C96.2 -74.8 101.6 -59.2 106.7 -44.2C111.8 -29.2 116.7 -14.6 121.5 0L0 0Z" fill="#0f483a"></path></g></svg>