<svg id="visual" viewBox="0 0 960 540" width="960" height="540" xmlns="http://www.w3.org/2000/svg" xmlns:xlink="http://www.w3.org/1999/xlink" version="1.1"><rect x="0" y="0" width="960" height="540" fill="#361a70"></rect><defs><linearGradient id="grad1_0" x1="43.8%" y1="0%" x2="100%" y2="100%"><stop offset="14.444444444444446%" stop-color="#c3bef7" stop-opacity="1"></stop><stop offset="85.55555555555554%" stop-color="#c3bef7" stop-opacity="1"></stop></linearGradient></defs><defs><linearGradient id="grad1_1" x1="43.8%" y1="0%" x2="100%" y2="100%"><stop offset="14.444444444444446%" stop-color="#c3bef7" stop-opacity="1"></stop><stop offset="85.55555555555554%" stop-color="#7969b3" stop-opacity="1"></stop></linearGradient></defs><defs><linearGradient id="grad1_2" x1="43.8%" y1="0%" x2="100%" y2="100%"><stop offset="14.444444444444446%" stop-color="#361a70" stop-opacity="1"></stop><stop offset="85.55555555555554%" stop-color="#7969b3" stop-opacity="1"></stop></linearGradient></defs><defs><linearGradient id="grad2_0" x1="0%" y1="0%" x2="56.3%" y2="100%"><stop offset="14.444444444444446%" stop-color="#c3bef7" stop-opacity="1"></stop><stop offset="85.55555555555554%" stop-color="#c3bef7" stop-opacity="1"></stop></linearGradient></defs><defs><linearGradient id="grad2_1" x1="0%" y1="0%" x2="56.3%" y2="100%"><stop offset="14.444444444444446%" stop-color="#7969b3" stop-opacity="1"></stop><stop offset="85.55555555555554%" stop-color="#c3bef7" stop-opacity="1"></stop></linearGradient></defs><defs><linearGradient id="grad2_2" x1="0%" y1="0%" x2="56.3%" y2="100%"><stop offset="14.444444444444446%" stop-color="#7969b3" stop-opacity="1"></stop><stop offset="85.55555555555554%" stop-color="#361a70" stop-opacity="1"></stop></linearGradient></defs><g transform="translate(960, 0)"><path d="M0 486C-59.8 456.2 -119.5 426.4 -161.5 389.9C-203.5 353.3 -227.7 310 -279.3 279.3C-330.9 248.6 -410 230.4 -449 186C-488 141.5 -487 70.8 -486 0L0 0Z" fill="#574292"></path><path d="M0 324C-39.8 304.1 -79.7 284.3 -107.7 259.9C-135.6 235.6 -151.8 206.7 -186.2 186.2C-220.6 165.7 -273.3 153.6 -299.3 124C-325.3 94.4 -324.7 47.2 -324 0L0 0Z" fill="#9d93d5"></path><path d="M0 162C-19.9 152.1 -39.8 142.1 -53.8 130C-67.8 117.8 -75.9 103.3 -93.1 93.1C-110.3 82.9 -136.7 76.8 -149.7 62C-162.7 47.2 -162.3 23.6 -162 0L0 0Z" fill="#c3bef7"></path></g><g transform="translate(0, 540)"><path d="M0 -486C46.6 -442.1 93.3 -398.2 158.4 -382.5C223.6 -366.7 307.2 -379.1 343.7 -343.7C380.1 -308.2 369.4 -224.8 385.3 -159.6C401.1 -94.3 443.6 -47.2 486 0L0 0Z" fill="#574292"></path><path d="M0 -324C31.1 -294.7 62.2 -265.5 105.6 -255C149 -244.5 204.8 -252.8 229.1 -229.1C253.4 -205.5 246.3 -149.9 256.8 -106.4C267.4 -62.9 295.7 -31.4 324 0L0 0Z" fill="#9d93d5"></path><path d="M0 -162C15.5 -147.4 31.1 -132.7 52.8 -127.5C74.5 -122.2 102.4 -126.4 114.6 -114.6C126.7 -102.7 123.1 -74.9 128.4 -53.2C133.7 -31.4 147.9 -15.7 162 0L0 0Z" fill="#c3bef7"></path></g></svg>