<svg id="visual" viewBox="0 0 900 450" width="900" height="450" xmlns="http://www.w3.org/2000/svg" xmlns:xlink="http://www.w3.org/1999/xlink" version="1.1"><rect x="0" y="0" width="900" height="450" fill="#001220"></rect><defs><linearGradient id="grad1_0" x1="50%" y1="0%" x2="100%" y2="100%"><stop offset="10%" stop-color="#98671d" stop-opacity="1"></stop><stop offset="90%" stop-color="#98671d" stop-opacity="1"></stop></linearGradient></defs><defs><linearGradient id="grad1_1" x1="50%" y1="0%" x2="100%" y2="100%"><stop offset="10%" stop-color="#98671d" stop-opacity="1"></stop><stop offset="90%" stop-color="#001220" stop-opacity="1"></stop></linearGradient></defs><defs><linearGradient id="grad2_0" x1="0%" y1="0%" x2="50%" y2="100%"><stop offset="10%" stop-color="#98671d" stop-opacity="1"></stop><stop offset="90%" stop-color="#98671d" stop-opacity="1"></stop></linearGradient></defs><defs><linearGradient id="grad2_1" x1="0%" y1="0%" x2="50%" y2="100%"><stop offset="10%" stop-color="#001220" stop-opacity="1"></stop><stop offset="90%" stop-color="#98671d" stop-opacity="1"></stop></linearGradient></defs><g transform="translate(900, 0)"><path d="M0 405C-41.3 396.9 -82.6 388.8 -122.7 377.6C-162.8 366.3 -201.7 351.9 -238.1 327.7C-274.4 303.4 -308.3 269.2 -313.9 228.1C-319.5 187 -296.7 139 -307.2 99.8C-317.7 60.7 -361.3 30.3 -405 0L0 0Z" fill="#632a48"></path><path d="M0 202.5C-20.6 198.5 -41.3 194.4 -61.3 188.8C-81.4 183.2 -100.8 176 -119 163.8C-137.2 151.7 -154.2 134.6 -156.9 114C-159.7 93.5 -148.4 69.5 -153.6 49.9C-158.8 30.3 -180.7 15.2 -202.5 0L0 0Z" fill="#98671d"></path></g><g transform="translate(0, 450)"><path d="M0 -405C35.7 -368.9 71.3 -332.7 100.4 -309.1C129.5 -285.5 152 -274.4 195.7 -269.4C239.4 -264.4 304.4 -265.5 327.7 -238.1C350.9 -210.6 332.6 -154.5 338.6 -110C344.5 -65.6 374.8 -32.8 405 0L0 0Z" fill="#632a48"></path><path d="M0 -202.5C17.8 -184.4 35.7 -166.4 50.2 -154.5C64.8 -142.7 76 -137.2 97.9 -134.7C119.7 -132.2 152.2 -132.8 163.8 -119C175.5 -105.3 166.3 -77.2 169.3 -55C172.3 -32.8 187.4 -16.4 202.5 0L0 0Z" fill="#98671d"></path></g></svg>